{
  "asset": {
    "generator": "Khronos glTF Blender I/O v1.8.19",
    "version": "2.0"
  },
  "scene": 0,
  "scenes": [
    {
      "name": "Scene",
      "nodes": [0]
    }
  ],
  "nodes": [
    {
      "mesh": 0,
      "name": "Wall",
      "translation": [
        0.8654109239578247, -0.000834733247756958, -1.7363258600234985
      ]
    }
  ],
  "materials": [
    {
      "doubleSided": true,
      "name": "Material.001",
      "pbrMetallicRoughness": {
        "baseColorFactor": [
          0.800000011920929, 0.800000011920929, 0.800000011920929, 1
        ],
        "metallicFactor": 0,
        "roughnessFactor": 0.5
      }
    }
  ],
  "meshes": [
    {
      "name": "Wall.001",
      "primitives": [
        {
          "attributes": {
            "POSITION": 0,
            "NORMAL": 1,
            "TEXCOORD_0": 2
          },
          "indices": 3,
          "material": 0
        }
      ]
    }
  ],
  "accessors": [
    {
      "bufferView": 0,
      "componentType": 5126,
      "count": 2446,
      "max": [11.03207015991211, 0.30000001192092896, 6.26469612121582],
      "min": [-12.602556228637695, -0.02496163174510002, -2.6118903160095215],
      "type": "VEC3"
    },
    {
      "bufferView": 1,
      "componentType": 5126,
      "count": 2446,
      "type": "VEC3"
    },
    {
      "bufferView": 2,
      "componentType": 5126,
      "count": 2446,
      "type": "VEC2"
    },
    {
      "bufferView": 3,
      "componentType": 5123,
      "count": 4008,
      "type": "SCALAR"
    }
  ],
  "bufferViews": [
    {
      "buffer": 0,
      "byteLength": 29352,
      "byteOffset": 0
    },
    {
      "buffer": 0,
      "byteLength": 29352,
      "byteOffset": 29352
    },
    {
      "buffer": 0,
      "byteLength": 19568,
      "byteOffset": 58704
    },
    {
      "buffer": 0,
      "byteLength": 8016,
      "byteOffset": 78272
    }
  ],
  "buffers": [
    {
      "byteLength": 86288,
      "uri": "data:application/octet-stream;base64,"
    }
  ]
}
