{
    "asset" : {
        "generator" : "Khronos glTF Blender I/O v1.8.19",
        "version" : "2.0"
    },
    "scene" : 0,
    "scenes" : [
        {
            "name" : "Scene",
            "nodes" : [
                0,
                1,
                2,
                3,
                4
            ]
        }
    ],
    "nodes" : [
        {
            "mesh" : 0,
            "name" : "Cube.001",
            "scale" : [
                0.9995264410972595,
                1,
                1
            ]
        },
        {
            "mesh" : 1,
            "name" : "Cube.002",
            "translation" : [
                10.434832572937012,
                1.9227111339569092,
                0.02814754843711853
            ]
        },
        {
            "mesh" : 2,
            "name" : "Cube.003",
            "scale" : [
                0.9726299047470093,
                1,
                1
            ],
            "translation" : [
                -0.04898810386657715,
                1.9248839616775513,
                7.532179355621338
            ]
        },
        {
            "mesh" : 3,
            "name" : "Cube.004",
            "scale" : [
                0.9726299047470093,
                1,
                1
            ],
            "translation" : [
                0.20274300873279572,
                1.942276954650879,
                -7.546744346618652
            ]
        },
        {
            "mesh" : 4,
            "name" : "Cube.005",
            "translation" : [
                -10.498689651489258,
                1.8882335424423218,
                0.048783063888549805
            ]
        }
    ],
    "materials" : [
        {
            "doubleSided" : true,
            "name" : "Material.001",
            "pbrMetallicRoughness" : {
                "baseColorFactor" : [
                    0.800000011920929,
                    0.800000011920929,
                    0.800000011920929,
                    1
                ],
                "metallicFactor" : 0,
                "roughnessFactor" : 0.5
            }
        },
        {
            "doubleSided" : true,
            "name" : "Material.002",
            "pbrMetallicRoughness" : {
                "baseColorFactor" : [
                    0.800000011920929,
                    0.800000011920929,
                    0.800000011920929,
                    1
                ],
                "metallicFactor" : 0,
                "roughnessFactor" : 0.5
            }
        },
        {
            "doubleSided" : true,
            "name" : "Material.004",
            "pbrMetallicRoughness" : {
                "baseColorFactor" : [
                    0.800000011920929,
                    0.800000011920929,
                    0.800000011920929,
                    1
                ],
                "metallicFactor" : 0,
                "roughnessFactor" : 0.5
            }
        },
        {
            "doubleSided" : true,
            "name" : "Material.003",
            "pbrMetallicRoughness" : {
                "baseColorFactor" : [
                    0.7013978362083435,
                    0.7253406047821045,
                    0.8000000715255737,
                    1
                ],
                "metallicFactor" : 0,
                "roughnessFactor" : 0.5
            }
        },
        {
            "doubleSided" : true,
            "name" : "Material.005",
            "pbrMetallicRoughness" : {
                "baseColorFactor" : [
                    0.800000011920929,
                    0.800000011920929,
                    0.800000011920929,
                    1
                ],
                "metallicFactor" : 0,
                "roughnessFactor" : 0.5
            }
        }
    ],
    "meshes" : [
        {
            "name" : "Cube.006",
            "primitives" : [
                {
                    "attributes" : {
                        "POSITION" : 0,
                        "NORMAL" : 1,
                        "TEXCOORD_0" : 2
                    },
                    "indices" : 3,
                    "material" : 0
                }
            ]
        },
        {
            "name" : "Cube.007",
            "primitives" : [
                {
                    "attributes" : {
                        "POSITION" : 4,
                        "NORMAL" : 5,
                        "TEXCOORD_0" : 6
                    },
                    "indices" : 3,
                    "material" : 1
                }
            ]
        },
        {
            "name" : "Cube.008",
            "primitives" : [
                {
                    "attributes" : {
                        "POSITION" : 7,
                        "NORMAL" : 8,
                        "TEXCOORD_0" : 9
                    },
                    "indices" : 3,
                    "material" : 2
                }
            ]
        },
        {
            "name" : "Cube.009",
            "primitives" : [
                {
                    "attributes" : {
                        "POSITION" : 10,
                        "NORMAL" : 11,
                        "TEXCOORD_0" : 12
                    },
                    "indices" : 3,
                    "material" : 3
                }
            ]
        },
        {
            "name" : "Cube.010",
            "primitives" : [
                {
                    "attributes" : {
                        "POSITION" : 13,
                        "NORMAL" : 14,
                        "TEXCOORD_0" : 15
                    },
                    "indices" : 3,
                    "material" : 4
                }
            ]
        }
    ],
    "accessors" : [
        {
            "bufferView" : 0,
            "componentType" : 5126,
            "count" : 24,
            "max" : [
                10.75578498840332,
                0.0928506851196289,
                8.080338478088379
            ],
            "min" : [
                -10.75578498840332,
                -0.0928506851196289,
                -8.080338478088379
            ],
            "type" : "VEC3"
        },
        {
            "bufferView" : 1,
            "componentType" : 5126,
            "count" : 24,
            "type" : "VEC3"
        },
        {
            "bufferView" : 2,
            "componentType" : 5126,
            "count" : 24,
            "type" : "VEC2"
        },
        {
            "bufferView" : 3,
            "componentType" : 5123,
            "count" : 36,
            "type" : "SCALAR"
        },
        {
            "bufferView" : 4,
            "componentType" : 5126,
            "count" : 24,
            "max" : [
                0.28682518005371094,
                1.827077865600586,
                8.051036834716797
            ],
            "min" : [
                -0.28682518005371094,
                -1.827077865600586,
                -8.051036834716797
            ],
            "type" : "VEC3"
        },
        {
            "bufferView" : 5,
            "componentType" : 5126,
            "count" : 24,
            "type" : "VEC3"
        },
        {
            "bufferView" : 6,
            "componentType" : 5126,
            "count" : 24,
            "type" : "VEC2"
        },
        {
            "bufferView" : 7,
            "componentType" : 5126,
            "count" : 24,
            "max" : [
                10.828761100769043,
                1.8351049423217773,
                0.535588264465332
            ],
            "min" : [
                -10.828761100769043,
                -1.8351049423217773,
                -0.535588264465332
            ],
            "type" : "VEC3"
        },
        {
            "bufferView" : 8,
            "componentType" : 5126,
            "count" : 24,
            "type" : "VEC3"
        },
        {
            "bufferView" : 9,
            "componentType" : 5126,
            "count" : 24,
            "type" : "VEC2"
        },
        {
            "bufferView" : 10,
            "componentType" : 5126,
            "count" : 24,
            "max" : [
                10.828761100769043,
                1.8351049423217773,
                0.535588264465332
            ],
            "min" : [
                -10.828761100769043,
                -1.8351049423217773,
                -0.535588264465332
            ],
            "type" : "VEC3"
        },
        {
            "bufferView" : 11,
            "componentType" : 5126,
            "count" : 24,
            "type" : "VEC3"
        },
        {
            "bufferView" : 12,
            "componentType" : 5126,
            "count" : 24,
            "type" : "VEC2"
        },
        {
            "bufferView" : 13,
            "componentType" : 5126,
            "count" : 24,
            "max" : [
                0.28682518005371094,
                1.827077865600586,
                8.051036834716797
            ],
            "min" : [
                -0.28682518005371094,
                -1.827077865600586,
                -8.051036834716797
            ],
            "type" : "VEC3"
        },
        {
            "bufferView" : 14,
            "componentType" : 5126,
            "count" : 24,
            "type" : "VEC3"
        },
        {
            "bufferView" : 15,
            "componentType" : 5126,
            "count" : 24,
            "type" : "VEC2"
        }
    ],
    "bufferViews" : [
        {
            "buffer" : 0,
            "byteLength" : 288,
            "byteOffset" : 0
        },
        {
            "buffer" : 0,
            "byteLength" : 288,
            "byteOffset" : 288
        },
        {
            "buffer" : 0,
            "byteLength" : 192,
            "byteOffset" : 576
        },
        {
            "buffer" : 0,
            "byteLength" : 72,
            "byteOffset" : 768
        },
        {
            "buffer" : 0,
            "byteLength" : 288,
            "byteOffset" : 840
        },
        {
            "buffer" : 0,
            "byteLength" : 288,
            "byteOffset" : 1128
        },
        {
            "buffer" : 0,
            "byteLength" : 192,
            "byteOffset" : 1416
        },
        {
            "buffer" : 0,
            "byteLength" : 288,
            "byteOffset" : 1608
        },
        {
            "buffer" : 0,
            "byteLength" : 288,
            "byteOffset" : 1896
        },
        {
            "buffer" : 0,
            "byteLength" : 192,
            "byteOffset" : 2184
        },
        {
            "buffer" : 0,
            "byteLength" : 288,
            "byteOffset" : 2376
        },
        {
            "buffer" : 0,
            "byteLength" : 288,
            "byteOffset" : 2664
        },
        {
            "buffer" : 0,
            "byteLength" : 192,
            "byteOffset" : 2952
        },
        {
            "buffer" : 0,
            "byteLength" : 288,
            "byteOffset" : 3144
        },
        {
            "buffer" : 0,
            "byteLength" : 288,
            "byteOffset" : 3432
        },
        {
            "buffer" : 0,
            "byteLength" : 192,
            "byteOffset" : 3720
        }
    ],
    "buffers" : [
        {
            "byteLength" : 3912,
            "uri" : "data:application/octet-stream;base64,"
        }
    ]
}
